<svg xmlns="http://www.w3.org/2000/svg" fill="none" viewBox="0 0 113 24"><path fill="black" d="M18.44 10.94a1.5 1.5 0 0 1 2.12 2.12l-7.5 7.5a1.5 1.5 0 0 1-2.12-2.12l7.5-7.5Zm-1.5-8.25a1.5 1.5 0 1 1 2.12 2.12L4.81 19.06a1.5 1.5 0 1 1-2.12-2.12L16.94 2.69ZM38.112 12.272c-.128-.8-.816-1.28-1.536-1.28-.736 0-1.312.384-1.28 1.008.032.624.752.896 1.568 1.04 2.496.384 3.712 1.04 3.712 2.64 0 1.696-1.584 2.512-3.76 2.512-2.48 0-4.064-1.072-4.192-2.88l2.416-.112c.144.816.752 1.312 1.712 1.312.64 0 1.376-.256 1.36-.88-.016-.72-.832-.864-1.648-1.04-2.352-.448-3.632-1.04-3.632-2.592 0-1.68 1.408-2.688 3.84-2.688 2.128 0 3.568 1.072 3.84 2.864l-2.4.096Zm3.944-5.632h2.4v3.968c.496-.928 1.408-1.28 2.416-1.28 1.776 0 2.848 1.296 2.848 3.216V18h-2.4v-4.608c0-1.376-.32-2.112-1.312-2.112-1.008 0-1.552.768-1.552 2.112V18h-2.4V6.64Zm9.29 5.504c.32-1.808 1.712-2.816 3.936-2.816 2.576 0 3.904 1.264 3.904 3.68v2.672c0 .56.224.688.528.688h.304V18l-.416.016c-.56.016-2.208.176-2.432-1.312-.432.88-1.376 1.488-2.928 1.488-1.728 0-3.04-.928-3.04-2.432 0-1.568 1.168-2.16 3.216-2.56l2.336-.48c-.016-1.232-.48-1.824-1.488-1.824-.816 0-1.328.464-1.52 1.36l-2.4-.112Zm2.32 3.536c0 .544.448.96 1.328.96 1.04-.016 1.792-.784 1.792-2.32v-.112l-1.392.256c-1.008.192-1.728.352-1.728 1.216ZM69.48 6.64V18h-2.29l-.048-1.232c-.48.896-1.44 1.424-2.576 1.424-2.208 0-3.584-1.712-3.584-4.432 0-2.72 1.376-4.432 3.584-4.432 1.072 0 2.016.512 2.512 1.376V6.64h2.4Zm-6.033 7.12c0 1.584.768 2.608 1.872 2.608 1.168 0 1.904-1.024 1.904-2.608 0-1.616-.736-2.64-1.904-2.64-1.136 0-1.872 1.024-1.872 2.64Zm13.662-.992c-.144-1.024-.816-1.6-1.664-1.6-1.2 0-1.888.944-1.888 2.592 0 1.648.688 2.592 1.888 2.592.896 0 1.568-.576 1.712-1.68l2.48.096c-.224 2.112-1.936 3.424-4.192 3.424-2.64 0-4.352-1.76-4.352-4.432 0-2.672 1.712-4.432 4.352-4.432 2.192 0 3.904 1.264 4.128 3.328l-2.464.112Zm3.884-3.248h2.16l.048 1.344c.465-1.12 1.409-1.536 2.545-1.536 1.84 0 2.912 1.248 2.912 3.216V18h-2.4v-4.656c0-1.36-.304-2.112-1.313-2.112-1.007 0-1.551.752-1.551 2.112V18h-2.4V9.52Zm9.237 10.24L94.95 6h2.4l-4.735 13.76H90.23ZM106.766 18h-2.192l-.048-1.328c-.464 1.104-1.392 1.52-2.496 1.52-1.808 0-2.88-1.248-2.88-3.216V9.52h2.4v4.656c0 1.36.288 2.112 1.28 2.112s1.536-.752 1.536-2.112V9.52h2.4V18Zm1.993-8.48h2.4V18h-2.4V9.52Zm-.048-1.104V6.64h2.48v1.776h-2.48Z"/></svg>